HIERARCHY
ROOT Hips
{
	OFFSET -14.64140 90.27770 -84.91600
	CHANNELS 6 Xposition Yposition Zposition Zrotation Xrotation Yrotation
	JOINT Spine
	{
		OFFSET 0.00000 13.20850 -1.60436
		CHANNELS 3 Zrotation Xrotation Yrotation
		JOINT Spine1
		{
			OFFSET 0.00000 8.61716 0.00000
			CHANNELS 3 Zrotation Xrotation Yrotation
			JOINT Spine2
			{
				OFFSET 0.00000 8.61717 0.00000
				CHANNELS 3 Zrotation Xrotation Yrotation
				JOINT Spine3
				{
					OFFSET 0.00000 8.61717 0.00000
					CHANNELS 3 Zrotation Xrotation Yrotation
					JOINT Neck
					{
						OFFSET 0.00000 11.07920 1.10792
						CHANNELS 3 Zrotation Xrotation Yrotation
						JOINT Neck1
						{
							OFFSET 0.00000 7.08032 0.00000
							CHANNELS 3 Zrotation Xrotation Yrotation
							JOINT Head
							{
								OFFSET 0.00000 7.08031 0.00000
								CHANNELS 3 Zrotation Xrotation Yrotation
								End site
								{
									OFFSET 0.00000 0.00000 0.00000
								}
							}
						}
					}
					JOINT RightShoulder
					{
						OFFSET -0.01000 7.91373 5.19711
						CHANNELS 3 Zrotation Xrotation Yrotation
						JOINT RightArm
						{
							OFFSET -18.41580 0.00000 0.00000
							CHANNELS 3 Zrotation Xrotation Yrotation
							JOINT RightForeArm
							{
								OFFSET -29.11090 0.00000 0.00000
								CHANNELS 3 Zrotation Xrotation Yrotation
								JOINT RightHand
								{
									OFFSET -24.65040 0.00000 0.00000
									CHANNELS 3 Zrotation Xrotation Yrotation
									JOINT RightHandThumb1
									{
										OFFSET -5.35114 -0.85590 3.97906
										CHANNELS 3 Zrotation Xrotation Yrotation
										JOINT RightHandThumb2
										{
											OFFSET -4.52789 0.00000 0.00000
											CHANNELS 3 Zrotation Xrotation Yrotation
											JOINT RightHandThumb3
											{
												OFFSET -2.46976 0.00000 0.00000
												CHANNELS 3 Zrotation Xrotation Yrotation
												End site
												{
													OFFSET 0.00000 0.00000 0.00000
												}
											}
										}
									}
									JOINT RightHandIndex1
									{
										OFFSET -14.26970 0.00000 2.88139
										CHANNELS 3 Zrotation Xrotation Yrotation
										JOINT RightHandIndex2
										{
											OFFSET -5.48836 0.00000 0.00000
											CHANNELS 3 Zrotation Xrotation Yrotation
											JOINT RightHandIndex3
											{
												OFFSET -3.01859 0.00000 0.00000
												CHANNELS 3 Zrotation Xrotation Yrotation
												End site
												{
													OFFSET 0.00000 0.00000 0.00000
												}
											}
										}
									}
									JOINT RightHandMiddle1
									{
										OFFSET -14.26970 0.00000 -0.09147
										CHANNELS 3 Zrotation Xrotation Yrotation
										JOINT RightHandMiddle2
										{
											OFFSET -6.17441 0.00000 0.00000
											CHANNELS 3 Zrotation Xrotation Yrotation
											JOINT RightHandMiddle3
											{
												OFFSET -3.56743 0.00000 0.00000
												CHANNELS 3 Zrotation Xrotation Yrotation
												End site
												{
													OFFSET 0.00000 0.00000 0.00000
												}
											}
										}
									}
									JOINT RightHandRing1
									{
										OFFSET -12.69180 0.00000 -3.06433
										CHANNELS 3 Zrotation Xrotation Yrotation
										JOINT RightHandRing2
										{
											OFFSET -5.62556 0.00000 0.00000
											CHANNELS 3 Zrotation Xrotation Yrotation
											JOINT RightHandRing3
											{
												OFFSET -3.56744 0.00000 0.00000
												CHANNELS 3 Zrotation Xrotation Yrotation
												End site
												{
													OFFSET 0.00000 0.00000 0.00000
												}
											}
										}
									}
									JOINT RightHandPinky1
									{
										OFFSET -11.11390 0.00000 -6.03719
										CHANNELS 3 Zrotation Xrotation Yrotation
										JOINT RightHandPinky2
										{
											OFFSET -4.52789 0.00000 0.00000
											CHANNELS 3 Zrotation Xrotation Yrotation
											JOINT RightHandPinky3
											{
												OFFSET -2.46976 0.00000 0.00000
												CHANNELS 3 Zrotation Xrotation Yrotation
												End site
												{
													OFFSET 0.00000 0.00000 0.00000
												}
											}
										}
									}
								}
							}
						}
					}
					JOINT LeftShoulder
					{
						OFFSET 0.01000 7.91373 5.19711
						CHANNELS 3 Zrotation Xrotation Yrotation
						JOINT LeftArm
						{
							OFFSET 18.41580 0.00000 0.00000
							CHANNELS 3 Zrotation Xrotation Yrotation
							JOINT LeftForeArm
							{
								OFFSET 29.11090 0.00000 0.00000
								CHANNELS 3 Zrotation Xrotation Yrotation
								JOINT LeftHand
								{
									OFFSET 24.65040 0.00000 0.00000
									CHANNELS 3 Zrotation Xrotation Yrotation
									JOINT LeftHandThumb1
									{
										OFFSET 5.35114 -0.85590 3.97906
										CHANNELS 3 Zrotation Xrotation Yrotation
										JOINT LeftHandThumb2
										{
											OFFSET 4.52789 0.00000 0.00000
											CHANNELS 3 Zrotation Xrotation Yrotation
											JOINT LeftHandThumb3
											{
												OFFSET 2.46977 0.00000 0.00000
												CHANNELS 3 Zrotation Xrotation Yrotation
												End site
												{
													OFFSET 0.00000 0.00000 0.00000
												}
											}
										}
									}
									JOINT LeftHandIndex1
									{
										OFFSET 14.26970 0.00000 2.88139
										CHANNELS 3 Zrotation Xrotation Yrotation
										JOINT LeftHandIndex2
										{
											OFFSET 5.48836 0.00000 0.00000
											CHANNELS 3 Zrotation Xrotation Yrotation
											JOINT LeftHandIndex3
											{
												OFFSET 3.01859 0.00000 0.00000
												CHANNELS 3 Zrotation Xrotation Yrotation
												End site
												{
													OFFSET 0.00000 0.00000 0.00000
												}
											}
										}
									}
									JOINT LeftHandMiddle1
									{
										OFFSET 14.26970 0.00000 -0.09147
										CHANNELS 3 Zrotation Xrotation Yrotation
										JOINT LeftHandMiddle2
										{
											OFFSET 6.17440 0.00000 0.00000
											CHANNELS 3 Zrotation Xrotation Yrotation
											JOINT LeftHandMiddle3
											{
												OFFSET 3.56744 0.00000 0.00000
												CHANNELS 3 Zrotation Xrotation Yrotation
												End site
												{
													OFFSET 0.00000 0.00000 0.00000
												}
											}
										}
									}
									JOINT LeftHandRing1
									{
										OFFSET 12.69180 0.00000 -3.06433
										CHANNELS 3 Zrotation Xrotation Yrotation
										JOINT LeftHandRing2
										{
											OFFSET 5.62556 0.00000 0.00000
											CHANNELS 3 Zrotation Xrotation Yrotation
											JOINT LeftHandRing3
											{
												OFFSET 3.56744 0.00000 0.00000
												CHANNELS 3 Zrotation Xrotation Yrotation
												End site
												{
													OFFSET 0.00000 0.00000 0.00000
												}
											}
										}
									}
									JOINT LeftHandPinky1
									{
										OFFSET 11.11390 0.00000 -6.03719
										CHANNELS 3 Zrotation Xrotation Yrotation
										JOINT LeftHandPinky2
										{
											OFFSET 4.52789 0.00000 0.00000
											CHANNELS 3 Zrotation Xrotation Yrotation
											JOINT LeftHandPinky3
											{
												OFFSET 2.46976 0.00000 0.00000
												CHANNELS 3 Zrotation Xrotation Yrotation
												End site
												{
													OFFSET 0.00000 0.00000 0.00000
												}
											}
										}
									}
								}
							}
						}
					}
					JOINT pCube4
					{
						OFFSET 0.00000 10.91090 1.10792
						CHANNELS 3 Zrotation Xrotation Yrotation
						End site
						{
							OFFSET 0.00000 0.00000 0.00000
						}
					}
				}
			}
		}
	}
	JOINT RightUpLeg
	{
		OFFSET -9.98441 0.00000 0.00000
		CHANNELS 3 Zrotation Xrotation Yrotation
		JOINT RightLeg
		{
			OFFSET 0.00000 -42.11790 0.00000
			CHANNELS 3 Zrotation Xrotation Yrotation
			JOINT RightFoot
			{
				OFFSET 0.00000 -45.00020 -0.00001
				CHANNELS 3 Zrotation Xrotation Yrotation
				JOINT RightForeFoot
				{
					OFFSET 0.00000 -3.74820 0.00000
					CHANNELS 3 Zrotation Xrotation Yrotation
					JOINT RightToeBase
					{
						OFFSET 0.00000 0.06325 14.43120
						CHANNELS 3 Zrotation Xrotation Yrotation
						End site
						{
							OFFSET 0.00000 0.00000 0.00000
						}
					}
				}
			}
		}
	}
	JOINT LeftUpLeg
	{
		OFFSET 9.98441 0.00000 0.00000
		CHANNELS 3 Zrotation Xrotation Yrotation
		JOINT LeftLeg
		{
			OFFSET 0.00000 -42.11800 0.00000
			CHANNELS 3 Zrotation Xrotation Yrotation
			JOINT LeftFoot
			{
				OFFSET 0.00000 -45.00070 0.00000
				CHANNELS 3 Zrotation Xrotation Yrotation
				JOINT LeftForeFoot
				{
					OFFSET 0.00000 -3.74824 0.00000
					CHANNELS 3 Zrotation Xrotation Yrotation
					JOINT LeftToeBase
					{
						OFFSET 0.00000 0.06325 14.43110
						CHANNELS 3 Zrotation Xrotation Yrotation
						End site
						{
							OFFSET 0.00000 0.00000 0.00000
						}
					}
				}
			}
		}
	}
}
MOTION
Frames: 4
Frame Time: 0.050000
-0.025724822897180366 -0.01406660810853528 0.03378675705135863 0.002113727151148113 0.03180738209649349 -0.03819408237309928 -3.1490744135612063 2.0944864737139217 -0.6478648463969897 -1.0219631371674223 3.8410247696191258 0.37564935609211547 -0.9467825688210771 -1.8049606208307458 -2.234527770933407 -0.8990050961705309 0.4967069099628385 -0.9672645469098803 -2.346915712937363 13.642958635447421 5.403959357481011 -0.5271771634229366 -0.7974316500755072 11.550275113978241 -2.0899627273595387 -16.61236633938992 1.0598994043549472 -3.9290448256892634 1.5820267832664092 -13.26975464697081 73.04972544947294 20.286200582246686 10.268913772336235 11.58205496462418 5.608440901296762 70.70237266853205 18.122261875925894 -0.32147868313586125 -3.704692854593914 4.509226096488152 -0.14154068166018044 -1.636963346636734 -0.015117701575009686 -0.037156552559782084 -56.25239279123083 -0.0032048422797773296 0.002807457408427461 -56.242845541381556 -38.75571887474992 -0.029277362290127947 -0.01224725453863373 -0.00835215966043086 0.0466964796201827 0.011272653800503513 0.01773157880490286 -0.020810426687101216 0.00957000574401888 -36.73818790946944 0.02466371483984209 -0.011359339121715016 -0.002916150810675866 -0.0033911278955989325 -0.031202382572650646 -0.02377110824371456 0.03340636931313894 -0.0401201932539279 -19.73566108834056 0.02924164914266841 0.03203266569775306 -0.030536371340496485 -0.04351845816432585 0.007667833655913465 0.003770574383422572 -0.022154826150709513 -0.04506631441629042 24.072459219813233 -0.023211755027358633 0.0349178051737473 28.88761240761985 -0.049431183422286626 -0.024083814473686203 28.848936012570572 -0.002611566331324458 0.027562970065238987 10.307978474659272 2.106637462090639 12.381540771409847 -70.68854827792153 8.464420491118126 -28.669075145300543 -65.4094327896896 9.655595166533175 -92.12809928100921 -7.438405515606254 2.40535108096774 -2.0620850317269714 -0.4619320179173426 0.08533384276595678 -8.165370116391477 -0.010929014693490122 0.02024711023315424 44.55035561509962 -0.01852427913162394 -0.04308545374692974 44.56517851993155 12.44530910364628 -0.0327017858085283 0.04069086008169499 -0.03900358538198974 -0.03759142339954444 0.03760315390580716 0.00945563328191821 0.026116107294610995 -0.011923764616755844 11.110366653657755 0.0075342574970100685 0.0330286416424568 0.0029406454879750484 0.005720192637071392 -0.0013624478777260081 -0.015809227014097135 0.00307412975598238 -0.002851171236819585 4.815140881022581 0.015209972219446836 0.027584670420449216 0.02874154327212166 -0.0007399512507771882 0.03570109481142989 -0.012504889766184014 0.016827632492829057 0.026567319806635764 -5.6279280019103455 -0.0023576753599425975 -0.00906995447611531 -6.736164168152823 0.04763197364439542 -0.0017001180688511288 -6.705130428927865 -0.020683075232719075 -0.01967497467661396 0.03990516971662192 -0.02425710511687456 -0.007251834439466207 8.027551013422068 3.5408161943749263 -19.264431032617892 -0.03646088234747405 10.387013840625198 -0.01776630482417652 -5.611249712851189 -15.677149983721304 3.2142945763317714 0.025904208112397336 0.022795260227177292 0.018832538488927665 0.03709956212307649 4.688736187889304 0.03768613306659169 12.455153123388094 -8.201296311045715 6.893307610851659 0.012704740267519835 46.36227543554519 -0.04684280289457217 -4.277946878364253 -14.741677764442512 -3.8368686187293357 0.034062799004284584 -0.026934112072100783 -0.009237093600607524 -0.018527763024725 -10.697167733654902 -0.02912575539478969 
-0.01471469092217792 -0.0009711674696430816 0.010717554284588478 0.02077931510405655 0.03544304219456399 0.018790095202854518 -3.1033281750180963 2.135014784766387 -0.6425169486959537 -1.0353346123747762 3.8075924030465016 0.3432203430619549 -1.0244236819966512 -1.7875666954118627 -2.132674749635822 -0.8480612816898953 0.48655706864108583 -0.9687777968375665 -2.1816175825117927 13.70535687844727 4.980942450519026 -0.531613219294637 -0.7383964605880944 10.387206362802688 -1.9328700281849618 -16.598408988612487 0.9739673695650919 -4.118014660474064 1.649063044771627 -13.293178365752693 73.03423913756606 18.413973542133082 11.33382178298806 12.42000133779122 6.013317399086613 71.93456734405976 17.213121734049043 -0.3435275741216468 -3.4731176209041856 4.565153723540039 -0.1575052344305613 -1.5625518743966411 0.01496221711660359 -0.025422831280541416 -56.25448258280181 0.020945823182899344 -0.035938172380379656 -56.24431578524655 -38.74301158676456 -0.01837515764754976 -0.018101409323887895 0.0434320820469417 -0.024327059853164454 0.020282003532186187 -0.030993086902008547 -0.04934018345374806 0.00819490935534954 -36.67615534742022 0.04905683858576314 -0.002378923948820521 0.020375826856347833 0.009809347419644957 0.006200132611979151 0.030726991368078372 -0.044955705925431154 -0.03987839199837016 -19.724660603713982 -0.035740448086152496 0.04648628629323759 0.04261657978077761 0.021142501454862992 -0.016017243670569094 0.034446328929973305 -0.048211977412428934 -0.01493843564008449 24.090379512275934 -0.03903000923157671 -0.020849964914823778 28.896342079854932 -0.049754075482568334 0.013477746369269957 28.844069410588954 0.02101362025086136 -0.032912070323973024 10.118554542076401 2.1375021997714168 12.389104155995303 -70.5329746245547 8.182350220808681 -28.312224810074454 -64.0812882253015 10.226326297016996 -92.24185979260724 -6.967675797515693 2.711051578925616 -2.3739559537171604 -0.4251203819927515 0.06472366688933728 -8.112931009491588 0.003037441460261419 0.03578169421386794 44.61169796284907 -0.016659126324639707 -0.04898699964705115 44.524526475200155 12.417995744827177 0.01847048294928446 -0.04838196553410008 0.012880004441928893 -0.011156844734342464 0.006263641641303252 0.03921804615873369 0.03470635341448886 -0.0064794037800666145 11.142752747664954 0.013989695996670859 0.04533928617535717 -0.023908469258903744 -0.04283992664289024 0.04304250746604073 -0.04451738929559548 0.015091529935183815 0.007834178829267357 4.729202519204885 -0.03139815872111678 -0.03213352842973813 -0.027356625862604636 -0.01189124178464289 0.008396345807209424 0.024293561183522352 -0.03224859005638142 -0.015005733008481808 -5.623327324934359 0.03244905108740157 -0.02696580824086299 -6.700485070892181 0.0014348701979216246 -0.031085624149648588 -6.74222022874995 -0.018405305265802037 0.008666344656011175 0.006674692391588515 -0.03032309007335118 -0.03391348293562686 8.045246424749351 3.4605201719583363 -19.234223733335153 -0.01061831754784518 10.411950129005183 0.0053526230418167575 -5.6016726557589 -15.616460983303915 3.1967067801019486 0.023763015779124274 0.018779230472628243 0.04491047941794887 0.040141865024989516 4.67618309403602 0.03651259607742597 12.452654277321322 -8.25134404532383 6.928343900275382 -0.009645298250019252 46.36774891461005 -0.021546770339995955 -4.318954301734882 -14.716939023992493 -3.8209555384404403 0.004514154417247238 -0.009466420039646277 -0.03306123764576413 0.015334772496110418 -10.707009856302644 0.019637672959235564 
-0.031134425719244397 0.008526769356498255 0.04604230988993069 -0.024725128558994863 -0.007536122921360271 0.016738900094295565 -3.033404808472634 2.1304960109686273 -0.6407260802998491 -1.0661038183179135 3.840503072507223 0.3346071631413823 -1.0280161694902121 -1.7527688741325593 -1.9569934830489082 -0.7662425661916482 0.5059274179203443 -0.9469716590894169 -1.9540065638386357 13.675536665219374 4.518920704714281 -0.5852051003725172 -0.7033624493835208 9.17530030933895 -1.782231866134382 -16.495585810367658 0.8619163204694287 -4.359802784968629 1.7341320914394007 -13.285812100797557 72.95414935196068 16.852305583644533 12.127113125507599 12.903864377112301 6.053889107338159 72.20096685014005 16.280823242404608 -0.29712021887160894 -3.077638242047086 4.526493265290241 -0.14809185949094036 -1.602759950206703 0.0002867861875418276 0.0020508136274971947 -56.280500711673405 -0.012508407758737995 -0.00934128819898483 -56.230145044731096 -38.78225440408281 -0.019200353782051913 0.0009429926214665934 0.047060724515149074 -0.010900975434050511 0.04137353661628163 0.020108369867755965 -0.04378012134613037 0.0058957490978622466 -36.70512476931743 0.02574312585402615 0.023715278034254016 0.0054225987466574145 0.03531220827594667 -0.04516320768478849 -0.045013378405114025 -0.02737995051804683 0.030115760435166693 -19.78229314507273 -0.0030573724565201347 0.037254489319552275 0.032651305870960844 -0.006519436574308963 0.01498365015121459 -0.02334636191581724 -0.003975521120657329 0.02245297744838832 24.077869616011803 -0.04100969451941433 -0.027364256261288467 28.822303013862008 -0.029242725027072442 -0.027994412367452426 28.879646001664124 -0.04996971103478109 -0.024706061844365346 9.875032575683186 2.0360414033514878 12.458517443993118 -70.17043299930377 8.852987290001694 -27.676556942878594 -60.84402137837273 10.52160227299179 -91.10021470721259 -6.653376266527566 2.979574320967402 -2.550206249667693 -0.42426495172627754 0.11708057807070266 -8.09113867392374 0.04008527713782976 0.022259234321827404 44.5707995628106 -0.0028222519248961545 0.023733035304598585 44.54022039562584 12.473741202565211 0.0011051667533725268 0.0344234278671863 0.04360583530903672 -0.0011138419192446144 0.02738138188564345 -0.019837197661955398 0.01796548005231467 0.0205978249261292 11.099494344011744 0.03674669841646617 -0.008710336223841547 -0.016701576451387895 0.02555714287153794 0.005485196260059184 0.038563322824765774 0.033843403951499595 0.019094333613806747 4.81821597910105 0.024376940524441164 0.015161747849604756 0.009309307509079557 0.03732388500968799 -0.04255083732574797 0.00932147589761211 -0.016265193319143167 0.013007651673208694 -5.582306385910289 0.02559242465270176 -0.01719820053375827 -6.690907892457174 0.03251268748212035 -0.040230023034574444 -6.676589855592424 0.011910283078389398 -0.04290240410491039 -0.0033705727662436367 -0.040170544552463036 -0.007374449016828928 8.072060641524935 3.5059263005487704 -19.229648410736203 0.0307790130237975 10.350999756340176 0.02578549023112079 -5.577848752057769 -15.657227696200733 3.1685242217996263 0.006117828618697771 0.0065980798488400015 -0.0018315762268280567 0.033175771286992325 4.659930827227469 0.017313507362049448 12.472336183085874 -8.220092169574855 6.847451045511041 0.03500667778215593 46.35354143403619 0.01969699600176207 -4.305754543429612 -14.763134940812002 -3.8236526374014765 0.030477512269525532 0.009102341688872442 -0.015732417569251138 0.03426758546666945 -10.774412738283313 0.008979247415775984 
-0.028771102883411045 0.008221792620009308 -0.021663364792458187 0.04470321587393579 0.006522522859584447 0.0015739953691580573 -3.03216777557879 2.1406774750959885 -0.6977425709266607 -1.1017908360935096 3.8672588131640033 0.3744891422280468 -1.0321132857913418 -1.7377262366364308 -1.9018881050399499 -0.6500293216678121 0.5356390850896773 -0.9166612342317515 -1.8402045638291127 13.676283384352613 4.1142481920933145 -0.522956664261459 -0.753470378947748 8.218498544746385 -1.658640778472566 -16.468464772698713 0.7292541759832177 -4.58568147501194 1.7592508777035227 -13.330765176146068 72.92902905480446 16.477108310982494 12.164337623796639 12.047917746162877 5.77951883639699 69.85262168968737 15.549825163254418 -0.3406539010984803 -2.620940167143536 4.48195974941238 -0.09010892152518557 -1.622592717456607 -0.04121840057849106 -0.020235473894450753 -56.222547602122624 0.04238917074363231 0.04311607687514673 -56.18973743000633 -38.732519452866455 -0.009155205110013572 0.01420586116131526 -0.0015840060500069717 -0.042507412799415646 -0.004725071194114328 -0.04792651598644506 0.02190984233335778 -0.023111005099564284 -36.66979389420135 0.022158362836872912 0.035508090131089895 -0.04188838905904998 0.015163425893818453 -0.026103482640948802 0.0009757457623932685 -0.0010247917158824197 0.04752710878737469 -19.7489788377293 0.010045024690696654 0.0022529263807266196 -0.02052110193103449 -0.0005030204805946856 -0.024528357538411847 0.03019410958988939 0.0011862819820898172 -0.04268490138931082 24.019411307445715 0.0010677090402006048 -0.033795425502404206 28.83352277678459 -0.00968542128871234 0.04423021069351464 28.886924350971515 -0.01633111422387047 0.006499977209428211 9.697948852357525 2.030831441593341 12.470468433516812 -69.9258073893 9.790902785128885 -26.841355002865384 -56.611117530120296 11.002831230133072 -88.45363080158307 -6.290371558931929 3.026945708549624 -2.5227047000012313 -0.45338525133441904 0.07114039279307223 -8.137982983908225 -0.009184687507629161 -0.014229906809032416 44.605888414237135 -0.048499817806919206 -0.019375047349898762 44.540286805471325 12.480654548806989 0.018433990904495642 0.03171974320205986 -0.0373399278531929 0.015281728250288644 -0.03384760560456497 -0.010819907222353185 0.001604381261333494 -0.048655092281181235 11.087526694278605 0.020110223264029725 -0.00939364123280228 0.02247196710931924 0.03454005593610566 -0.011754605465170195 -0.009592479155157199 0.011316022226258186 0.04839007132779913 4.756909217123698 0.03173177954061285 -0.005364748628004109 -0.03982690054068857 -0.030368208416213727 0.006112433101241232 0.011455784182030785 0.0064316333529037505 0.0031029619149362786 -5.584746435802541 -0.030721234233702308 -0.0210897440815293 -6.680916524771112 -0.032700899353385236 0.04148637842223743 -6.758021154209663 0.014495920596676167 -0.0167560582870842 -0.009532393463232848 0.0005343853649744637 0.035499807902945324 8.073206790533835 3.491270636646732 -19.21115717393886 -0.008471923950929116 10.362750925298714 0.04870676957508842 -5.601206988267196 -15.644201167276472 3.2113044942986253 0.00030976801308681677 -0.012733788411454103 -0.04422135348282935 0.007738786046304491 4.686515563674832 0.03236662387996718 12.452091081355373 -8.232809695648076 6.863207048019886 0.03664787459449191 46.329675417384315 0.01664004277449209 -4.316252901741224 -14.727279401076627 -3.883839833868607 0.005824137454961459 0.025423734726222603 0.015286427233574956 -0.031281926038296694 -10.741209818528436 0.04351945451263917 
